<svg xmlns="http://www.w3.org/2000/svg" xmlns:xlink="http://www.w3.org/1999/xlink" width="500" zoomAndPan="magnify" viewBox="0 0 375 374.999991" height="500" preserveAspectRatio="xMidYMid meet" version="1.0"><defs><g/><clipPath id="91e59ca693"><path d="M 85 163 L 86.25 163 L 86.25 227 L 85 227 Z M 85 163 " clip-rule="nonzero"/></clipPath><clipPath id="930270e8c3"><path d="M 85 151.417969 L 86.25 151.417969 L 86.25 172 L 85 172 Z M 85 151.417969 " clip-rule="nonzero"/></clipPath><clipPath id="1d0c40c67c"><path d="M 52 163 L 86.25 163 L 86.25 169 L 52 169 Z M 52 163 " clip-rule="nonzero"/></clipPath><clipPath id="33b554dc76"><path d="M 59 174 L 86.25 174 L 86.25 180 L 59 180 Z M 59 174 " clip-rule="nonzero"/></clipPath><clipPath id="e54a809949"><path d="M 56 185 L 86.25 185 L 86.25 192 L 56 192 Z M 56 185 " clip-rule="nonzero"/></clipPath><clipPath id="9c011eee79"><path d="M 71 196 L 86.25 196 L 86.25 203 L 71 203 Z M 71 196 " clip-rule="nonzero"/></clipPath><clipPath id="55b768ce2c"><path d="M 64 207 L 86.25 207 L 86.25 214 L 64 214 Z M 64 207 " clip-rule="nonzero"/></clipPath><clipPath id="f502e7692f"><path d="M 37.5 163 L 49 163 L 49 169 L 37.5 169 Z M 37.5 163 " clip-rule="nonzero"/></clipPath><clipPath id="2bbea5591a"><path d="M 85.535156 134.472656 L 184.535156 134.472656 L 184.535156 240.222656 L 85.535156 240.222656 Z M 85.535156 134.472656 " clip-rule="nonzero"/></clipPath></defs><g clip-path="url(#91e59ca693)"><path fill="#000000" d="M 122.167969 176.105469 L 85.335938 163.324219 L 85.335938 213.320312 L 124.726562 226.992188 Z M 122.167969 176.105469 " fill-opacity="1" fill-rule="evenodd"/></g><g clip-path="url(#930270e8c3)"><path fill="#000000" d="M 125.742188 151.382812 L 166.148438 161.484375 L 125.742188 171.585938 L 85.335938 161.484375 Z M 125.742188 151.382812 " fill-opacity="1" fill-rule="evenodd"/></g><g clip-path="url(#1d0c40c67c)"><path fill="#000000" d="M 85.335938 163.324219 L 54.972656 163.324219 C 53.445312 163.324219 52.195312 164.574219 52.195312 166.101562 C 52.195312 167.628906 53.445312 168.878906 54.972656 168.878906 L 85.335938 168.878906 C 86.863281 168.878906 88.113281 167.628906 88.113281 166.101562 Z M 85.335938 163.324219 " fill-opacity="1" fill-rule="evenodd"/></g><g clip-path="url(#33b554dc76)"><path fill="#000000" d="M 85.335938 174.433594 L 62.472656 174.433594 C 60.945312 174.433594 59.695312 175.683594 59.695312 177.210938 C 59.695312 178.738281 60.945312 179.988281 62.472656 179.988281 L 85.335938 179.988281 C 86.863281 179.988281 88.113281 178.742188 88.113281 177.210938 C 88.113281 175.683594 86.863281 174.433594 85.335938 174.433594 " fill-opacity="1" fill-rule="evenodd"/></g><g clip-path="url(#e54a809949)"><path fill="#000000" d="M 85.335938 185.546875 L 59.410156 185.546875 C 57.882812 185.546875 56.632812 186.792969 56.632812 188.320312 L 56.632812 188.324219 C 56.632812 189.851562 57.882812 191.101562 59.410156 191.101562 L 85.335938 191.101562 C 86.863281 191.101562 88.113281 189.851562 88.113281 188.324219 L 88.113281 188.320312 C 88.113281 186.792969 86.863281 185.546875 85.335938 185.546875 " fill-opacity="1" fill-rule="evenodd"/></g><g clip-path="url(#9c011eee79)"><path fill="#000000" d="M 85.335938 196.65625 L 74.71875 196.65625 C 73.191406 196.65625 71.941406 197.90625 71.941406 199.433594 C 71.941406 200.960938 73.1875 202.210938 74.71875 202.210938 L 85.335938 202.210938 C 86.863281 202.210938 88.113281 200.960938 88.113281 199.433594 C 88.113281 197.90625 86.863281 196.65625 85.335938 196.65625 " fill-opacity="1" fill-rule="evenodd"/></g><g clip-path="url(#55b768ce2c)"><path fill="#000000" d="M 85.335938 207.765625 L 67.148438 207.765625 C 65.621094 207.765625 64.371094 209.015625 64.371094 210.542969 C 64.371094 212.074219 65.621094 213.324219 67.148438 213.324219 L 85.335938 213.324219 C 86.863281 213.324219 88.113281 212.074219 88.113281 210.542969 C 88.113281 209.015625 86.863281 207.765625 85.335938 207.765625 " fill-opacity="1" fill-rule="evenodd"/></g><path fill="#000000" d="M 65.949219 196.65625 L 60.226562 196.65625 C 58.699219 196.65625 57.449219 197.90625 57.449219 199.433594 C 57.449219 200.960938 58.699219 202.210938 60.226562 202.210938 L 65.949219 202.210938 C 67.476562 202.210938 68.726562 200.960938 68.726562 199.433594 C 68.726562 197.90625 67.476562 196.65625 65.949219 196.65625 " fill-opacity="1" fill-rule="evenodd"/><path fill="#000000" d="M 53.90625 174.433594 L 44.308594 174.433594 C 42.78125 174.433594 41.53125 175.683594 41.53125 177.210938 C 41.53125 178.738281 42.78125 179.988281 44.308594 179.988281 L 53.90625 179.988281 C 55.433594 179.988281 56.683594 178.742188 56.683594 177.210938 C 56.683594 175.683594 55.433594 174.433594 53.90625 174.433594 " fill-opacity="1" fill-rule="evenodd"/><g clip-path="url(#f502e7692f)"><path fill="#000000" d="M 45.796875 163.324219 L 40.277344 163.324219 C 38.75 163.324219 37.5 164.574219 37.5 166.101562 C 37.5 167.628906 38.75 168.878906 40.277344 168.878906 L 45.796875 168.878906 C 47.324219 168.878906 48.574219 167.628906 48.574219 166.101562 C 48.574219 164.574219 47.324219 163.324219 45.796875 163.324219 " fill-opacity="1" fill-rule="evenodd"/></g><path fill="#ffffff" d="M 131.125 137.101562 L 92.078125 155.585938 C 88.90625 157.121094 86.875 160.34375 86.875 163.910156 L 86.921875 211.382812 C 86.921875 214.902344 88.953125 218.171875 92.175781 219.65625 L 131.171875 238.191406 C 133.652344 239.378906 136.574219 239.378906 139.050781 238.191406 L 178.101562 219.65625 C 181.320312 218.121094 183.351562 214.902344 183.351562 211.332031 L 183.351562 163.863281 C 183.351562 160.292969 181.320312 157.074219 178.101562 155.585938 L 139.003906 137.101562 C 136.523438 135.914062 133.652344 135.914062 131.125 137.101562 Z M 131.125 137.101562 " fill-opacity="1" fill-rule="nonzero"/><g clip-path="url(#2bbea5591a)"><path fill="#000000" d="M 135.089844 240.421875 C 133.550781 240.421875 132.015625 240.074219 130.578125 239.378906 L 91.582031 220.847656 C 87.964844 219.113281 85.585938 215.398438 85.585938 211.382812 L 85.535156 163.910156 C 85.535156 159.847656 87.863281 156.132812 91.53125 154.398438 L 130.578125 135.914062 C 133.453125 134.574219 136.722656 134.574219 139.597656 135.914062 L 178.644531 154.445312 C 182.3125 156.179688 184.640625 159.898438 184.640625 163.910156 L 184.640625 211.382812 C 184.640625 215.398438 182.261719 219.164062 178.644531 220.898438 L 139.597656 239.429688 C 138.160156 240.074219 136.625 240.421875 135.089844 240.421875 Z M 131.71875 138.292969 L 92.671875 156.777344 C 89.945312 158.0625 88.160156 160.886719 88.160156 163.910156 L 88.210938 211.382812 C 88.210938 214.40625 89.996094 217.179688 92.71875 218.46875 L 131.71875 237 C 133.847656 238.042969 136.328125 238.042969 138.457031 237 L 177.503906 218.46875 C 180.230469 217.179688 182.015625 214.40625 182.015625 211.382812 L 182.015625 163.910156 C 182.015625 160.886719 180.230469 158.113281 177.503906 156.824219 L 138.457031 138.292969 C 136.328125 137.253906 133.847656 137.253906 131.71875 138.292969 Z M 131.71875 138.292969 " fill-opacity="1" fill-rule="nonzero"/></g><g fill="#737373" fill-opacity="1"><g transform="translate(186.366467, 182.921366)"><g><path d="M 11.625 0 L 6.625 0 L -0.109375 -19.671875 L 4.796875 -19.671875 L 9.125 -5.1875 L 13.453125 -19.671875 L 18.359375 -19.671875 Z M 11.625 0 "/></g></g></g><g fill="#737373" fill-opacity="1"><g transform="translate(205.904868, 182.921366)"><g><path d="M 14.984375 0 L 1.546875 0 L 1.546875 -19.671875 L 14.984375 -19.671875 L 14.984375 -15.546875 L 6.15625 -15.546875 L 6.15625 -11.890625 L 14.125 -11.890625 L 14.125 -7.78125 L 6.15625 -7.78125 L 6.15625 -4.125 L 14.984375 -4.125 Z M 14.984375 0 "/></g></g></g><g fill="#737373" fill-opacity="1"><g transform="translate(223.278144, 182.921366)"><g><path d="M 6.15625 0 L 1.546875 0 L 1.546875 -19.671875 L 6.15625 -19.671875 Z M 6.15625 0 "/></g></g></g><g fill="#737373" fill-opacity="1"><g transform="translate(232.300226, 182.921366)"><g><path d="M 10.640625 0.4375 C 8.960938 0.4375 7.503906 0.160156 6.265625 -0.390625 C 5.023438 -0.941406 4.003906 -1.691406 3.203125 -2.640625 C 2.410156 -3.597656 1.816406 -4.691406 1.421875 -5.921875 C 1.023438 -7.160156 0.828125 -8.46875 0.828125 -9.84375 C 0.828125 -11.21875 1.023438 -12.519531 1.421875 -13.75 C 1.816406 -14.976562 2.410156 -16.066406 3.203125 -17.015625 C 4.003906 -17.972656 5.023438 -18.722656 6.265625 -19.265625 C 7.503906 -19.804688 8.960938 -20.078125 10.640625 -20.078125 C 12.378906 -20.078125 13.863281 -19.78125 15.09375 -19.1875 C 16.320312 -18.59375 17.296875 -17.769531 18.015625 -16.71875 C 18.742188 -15.664062 19.191406 -14.429688 19.359375 -13.015625 L 14.3125 -13.015625 C 14.175781 -14.035156 13.757812 -14.78125 13.0625 -15.25 C 12.363281 -15.71875 11.523438 -15.953125 10.546875 -15.953125 C 8.984375 -15.953125 7.785156 -15.394531 6.953125 -14.28125 C 6.117188 -13.175781 5.703125 -11.695312 5.703125 -9.84375 C 5.703125 -7.96875 6.117188 -6.472656 6.953125 -5.359375 C 7.785156 -4.242188 8.984375 -3.6875 10.546875 -3.6875 C 11.523438 -3.6875 12.359375 -3.925781 13.046875 -4.40625 C 13.734375 -4.882812 14.15625 -5.640625 14.3125 -6.671875 L 19.359375 -6.671875 C 19.191406 -5.265625 18.742188 -4.023438 18.015625 -2.953125 C 17.296875 -1.878906 16.320312 -1.046875 15.09375 -0.453125 C 13.863281 0.140625 12.378906 0.4375 10.640625 0.4375 Z M 10.640625 0.4375 "/></g></g></g><g fill="#737373" fill-opacity="1"><g transform="translate(253.668682, 182.921366)"><g><path d="M 9.71875 0.4375 C 7.6875 0.4375 6.054688 0.101562 4.828125 -0.5625 C 3.597656 -1.238281 2.707031 -2.164062 2.15625 -3.34375 C 1.613281 -4.519531 1.34375 -5.851562 1.34375 -7.34375 L 1.34375 -19.671875 L 5.984375 -19.671875 L 5.984375 -7.34375 C 5.984375 -6.675781 6.082031 -6.066406 6.28125 -5.515625 C 6.488281 -4.960938 6.863281 -4.519531 7.40625 -4.1875 C 7.945312 -3.851562 8.71875 -3.6875 9.71875 -3.6875 C 10.71875 -3.6875 11.484375 -3.851562 12.015625 -4.1875 C 12.546875 -4.519531 12.914062 -4.960938 13.125 -5.515625 C 13.332031 -6.066406 13.4375 -6.675781 13.4375 -7.34375 L 13.4375 -19.671875 L 18.078125 -19.671875 L 18.078125 -7.34375 C 18.078125 -5.851562 17.800781 -4.519531 17.25 -3.34375 C 16.695312 -2.164062 15.8125 -1.238281 14.59375 -0.5625 C 13.375 0.101562 11.75 0.4375 9.71875 0.4375 Z M 9.71875 0.4375 "/></g></g></g><g fill="#737373" fill-opacity="1"><g transform="translate(274.392743, 182.921366)"><g><path d="M 14.171875 0 L 1.546875 0 L 1.546875 -19.671875 L 6.15625 -19.671875 L 6.15625 -4.125 L 14.171875 -4.125 Z M 14.171875 0 "/></g></g></g><g fill="#737373" fill-opacity="1"><g transform="translate(290.064849, 182.921366)"><g><path d="M 4.953125 0 L 0.046875 0 L 6.78125 -19.671875 L 11.78125 -19.671875 L 18.515625 0 L 13.609375 0 L 12.5625 -3.53125 L 6 -3.53125 Z M 9.28125 -14.546875 L 7.21875 -7.53125 L 11.34375 -7.53125 Z M 9.28125 -14.546875 "/></g></g></g><g fill="#737373" fill-opacity="1"><g transform="translate(309.912558, 182.921366)"><g><path d="M 14.234375 -8.4375 L 17.640625 0 L 12.765625 0 L 9.90625 -7.578125 L 6.15625 -7.578125 L 6.15625 0 L 1.546875 0 L 1.546875 -19.671875 L 10.828125 -19.671875 C 12.023438 -19.671875 13.09375 -19.472656 14.03125 -19.078125 C 14.96875 -18.679688 15.703125 -18.046875 16.234375 -17.171875 C 16.773438 -16.304688 17.046875 -15.160156 17.046875 -13.734375 C 17.046875 -12.484375 16.789062 -11.410156 16.28125 -10.515625 C 15.769531 -9.617188 15.085938 -8.925781 14.234375 -8.4375 Z M 10.1875 -15.546875 L 6.15625 -15.546875 L 6.15625 -11.578125 L 10.1875 -11.578125 C 11.71875 -11.578125 12.484375 -12.25 12.484375 -13.59375 C 12.484375 -14.894531 11.71875 -15.546875 10.1875 -15.546875 Z M 10.1875 -15.546875 "/></g></g></g><g fill="#ff3131" fill-opacity="1"><g transform="translate(186.366467, 208.508519)"><g><path d="M 14.984375 0 L 1.546875 0 L 1.546875 -19.671875 L 14.984375 -19.671875 L 14.984375 -15.546875 L 6.15625 -15.546875 L 6.15625 -11.890625 L 14.125 -11.890625 L 14.125 -7.78125 L 6.15625 -7.78125 L 6.15625 -4.125 L 14.984375 -4.125 Z M 14.984375 0 "/></g></g></g><g fill="#ff3131" fill-opacity="1"><g transform="translate(203.739744, 208.508519)"><g><path d="M 5.5625 0 L 0.109375 0 L 6.46875 -9.765625 L 0.046875 -19.671875 L 5.546875 -19.671875 L 9.640625 -12.890625 L 13.765625 -19.671875 L 19.265625 -19.671875 L 12.84375 -9.765625 L 19.203125 0 L 13.734375 0 L 9.671875 -6.3125 Z M 5.5625 0 "/></g></g></g><g fill="#ff3131" fill-opacity="1"><g transform="translate(224.334932, 208.508519)"><g><path d="M 6.15625 0 L 1.546875 0 L 1.546875 -19.671875 L 10.828125 -19.671875 C 12.023438 -19.671875 13.09375 -19.472656 14.03125 -19.078125 C 14.96875 -18.679688 15.703125 -18.046875 16.234375 -17.171875 C 16.773438 -16.304688 17.046875 -15.160156 17.046875 -13.734375 C 17.046875 -12.453125 16.773438 -11.347656 16.234375 -10.421875 C 15.703125 -9.503906 14.96875 -8.800781 14.03125 -8.3125 C 13.09375 -7.820312 12.023438 -7.578125 10.828125 -7.578125 L 6.15625 -7.578125 Z M 6.15625 -15.546875 L 6.15625 -11.578125 L 10.1875 -11.578125 C 11.71875 -11.578125 12.484375 -12.25 12.484375 -13.59375 C 12.484375 -14.894531 11.71875 -15.546875 10.1875 -15.546875 Z M 6.15625 -15.546875 "/></g></g></g><g fill="#ff3131" fill-opacity="1"><g transform="translate(243.228955, 208.508519)"><g><path d="M 14.234375 -8.4375 L 17.640625 0 L 12.765625 0 L 9.90625 -7.578125 L 6.15625 -7.578125 L 6.15625 0 L 1.546875 0 L 1.546875 -19.671875 L 10.828125 -19.671875 C 12.023438 -19.671875 13.09375 -19.472656 14.03125 -19.078125 C 14.96875 -18.679688 15.703125 -18.046875 16.234375 -17.171875 C 16.773438 -16.304688 17.046875 -15.160156 17.046875 -13.734375 C 17.046875 -12.484375 16.789062 -11.410156 16.28125 -10.515625 C 15.769531 -9.617188 15.085938 -8.925781 14.234375 -8.4375 Z M 10.1875 -15.546875 L 6.15625 -15.546875 L 6.15625 -11.578125 L 10.1875 -11.578125 C 11.71875 -11.578125 12.484375 -12.25 12.484375 -13.59375 C 12.484375 -14.894531 11.71875 -15.546875 10.1875 -15.546875 Z M 10.1875 -15.546875 "/></g></g></g><g fill="#ff3131" fill-opacity="1"><g transform="translate(262.767353, 208.508519)"><g><path d="M 14.984375 0 L 1.546875 0 L 1.546875 -19.671875 L 14.984375 -19.671875 L 14.984375 -15.546875 L 6.15625 -15.546875 L 6.15625 -11.890625 L 14.125 -11.890625 L 14.125 -7.78125 L 6.15625 -7.78125 L 6.15625 -4.125 L 14.984375 -4.125 Z M 14.984375 0 "/></g></g></g><g fill="#ff3131" fill-opacity="1"><g transform="translate(280.140626, 208.508519)"><g><path d="M 9.828125 0.4375 C 8.898438 0.4375 7.925781 0.320312 6.90625 0.09375 C 5.894531 -0.132812 4.941406 -0.515625 4.046875 -1.046875 C 3.148438 -1.585938 2.40625 -2.316406 1.8125 -3.234375 C 1.21875 -4.148438 0.878906 -5.296875 0.796875 -6.671875 L 5.5625 -6.671875 C 5.789062 -5.816406 6.125 -5.148438 6.5625 -4.671875 C 7 -4.203125 7.5 -3.875 8.0625 -3.6875 C 8.632812 -3.507812 9.210938 -3.421875 9.796875 -3.421875 C 10.328125 -3.421875 10.820312 -3.5 11.28125 -3.65625 C 11.75 -3.8125 12.128906 -4.046875 12.421875 -4.359375 C 12.710938 -4.679688 12.859375 -5.101562 12.859375 -5.625 C 12.859375 -6.132812 12.660156 -6.539062 12.265625 -6.84375 C 11.867188 -7.144531 11.34375 -7.390625 10.6875 -7.578125 C 10.039062 -7.765625 9.332031 -7.945312 8.5625 -8.125 C 7.738281 -8.3125 6.898438 -8.523438 6.046875 -8.765625 C 5.191406 -9.003906 4.40625 -9.332031 3.6875 -9.75 C 2.976562 -10.175781 2.40625 -10.734375 1.96875 -11.421875 C 1.53125 -12.109375 1.3125 -12.992188 1.3125 -14.078125 C 1.3125 -15.429688 1.640625 -16.550781 2.296875 -17.4375 C 2.953125 -18.320312 3.832031 -18.984375 4.9375 -19.421875 C 6.039062 -19.859375 7.265625 -20.078125 8.609375 -20.078125 C 9.984375 -20.078125 11.269531 -19.835938 12.46875 -19.359375 C 13.675781 -18.878906 14.679688 -18.148438 15.484375 -17.171875 C 16.296875 -16.203125 16.804688 -14.988281 17.015625 -13.53125 L 12.25 -13.53125 C 12.019531 -14.375 11.578125 -15.03125 10.921875 -15.5 C 10.273438 -15.976562 9.46875 -16.21875 8.5 -16.21875 C 7.851562 -16.21875 7.257812 -16.078125 6.71875 -15.796875 C 6.175781 -15.523438 5.90625 -15.082031 5.90625 -14.46875 C 5.90625 -14 6.09375 -13.617188 6.46875 -13.328125 C 6.84375 -13.035156 7.347656 -12.796875 7.984375 -12.609375 C 8.628906 -12.429688 9.316406 -12.257812 10.046875 -12.09375 C 10.878906 -11.90625 11.734375 -11.6875 12.609375 -11.4375 C 13.484375 -11.1875 14.289062 -10.84375 15.03125 -10.40625 C 15.769531 -9.96875 16.363281 -9.378906 16.8125 -8.640625 C 17.269531 -7.910156 17.5 -6.984375 17.5 -5.859375 C 17.5 -4.566406 17.191406 -3.453125 16.578125 -2.515625 C 15.960938 -1.578125 15.082031 -0.847656 13.9375 -0.328125 C 12.789062 0.179688 11.421875 0.4375 9.828125 0.4375 Z M 9.828125 0.4375 "/></g></g></g><g fill="#ff3131" fill-opacity="1"><g transform="translate(299.782131, 208.508519)"><g><path d="M 9.828125 0.4375 C 8.898438 0.4375 7.925781 0.320312 6.90625 0.09375 C 5.894531 -0.132812 4.941406 -0.515625 4.046875 -1.046875 C 3.148438 -1.585938 2.40625 -2.316406 1.8125 -3.234375 C 1.21875 -4.148438 0.878906 -5.296875 0.796875 -6.671875 L 5.5625 -6.671875 C 5.789062 -5.816406 6.125 -5.148438 6.5625 -4.671875 C 7 -4.203125 7.5 -3.875 8.0625 -3.6875 C 8.632812 -3.507812 9.210938 -3.421875 9.796875 -3.421875 C 10.328125 -3.421875 10.820312 -3.5 11.28125 -3.65625 C 11.75 -3.8125 12.128906 -4.046875 12.421875 -4.359375 C 12.710938 -4.679688 12.859375 -5.101562 12.859375 -5.625 C 12.859375 -6.132812 12.660156 -6.539062 12.265625 -6.84375 C 11.867188 -7.144531 11.34375 -7.390625 10.6875 -7.578125 C 10.039062 -7.765625 9.332031 -7.945312 8.5625 -8.125 C 7.738281 -8.3125 6.898438 -8.523438 6.046875 -8.765625 C 5.191406 -9.003906 4.40625 -9.332031 3.6875 -9.75 C 2.976562 -10.175781 2.40625 -10.734375 1.96875 -11.421875 C 1.53125 -12.109375 1.3125 -12.992188 1.3125 -14.078125 C 1.3125 -15.429688 1.640625 -16.550781 2.296875 -17.4375 C 2.953125 -18.320312 3.832031 -18.984375 4.9375 -19.421875 C 6.039062 -19.859375 7.265625 -20.078125 8.609375 -20.078125 C 9.984375 -20.078125 11.269531 -19.835938 12.46875 -19.359375 C 13.675781 -18.878906 14.679688 -18.148438 15.484375 -17.171875 C 16.296875 -16.203125 16.804688 -14.988281 17.015625 -13.53125 L 12.25 -13.53125 C 12.019531 -14.375 11.578125 -15.03125 10.921875 -15.5 C 10.273438 -15.976562 9.46875 -16.21875 8.5 -16.21875 C 7.851562 -16.21875 7.257812 -16.078125 6.71875 -15.796875 C 6.175781 -15.523438 5.90625 -15.082031 5.90625 -14.46875 C 5.90625 -14 6.09375 -13.617188 6.46875 -13.328125 C 6.84375 -13.035156 7.347656 -12.796875 7.984375 -12.609375 C 8.628906 -12.429688 9.316406 -12.257812 10.046875 -12.09375 C 10.878906 -11.90625 11.734375 -11.6875 12.609375 -11.4375 C 13.484375 -11.1875 14.289062 -10.84375 15.03125 -10.40625 C 15.769531 -9.96875 16.363281 -9.378906 16.8125 -8.640625 C 17.269531 -7.910156 17.5 -6.984375 17.5 -5.859375 C 17.5 -4.566406 17.191406 -3.453125 16.578125 -2.515625 C 15.960938 -1.578125 15.082031 -0.847656 13.9375 -0.328125 C 12.789062 0.179688 11.421875 0.4375 9.828125 0.4375 Z M 9.828125 0.4375 "/></g></g></g><path stroke-linecap="butt" transform="matrix(0.752563, 0, 0, 0.752563, 78.966878, 144.32299)" fill="none" stroke-linejoin="miter" d="M 57.223587 78.000676 L 48.404769 78.000676 L 32.967945 28.783472 L 39.8351 28.783472 L 52.993253 71.668153 L 66.18255 28.783472 L 72.904369 28.783472 Z M 57.223587 78.000676 " stroke="#737373" stroke-width="10.379529" stroke-opacity="1" stroke-miterlimit="4"/><g fill="#737373" fill-opacity="1"><g transform="translate(102.413929, 203.022929)"><g><path d="M 19.625 0 L 12.984375 0 L 1.359375 -37.046875 L 6.53125 -37.046875 L 16.4375 -4.765625 L 26.359375 -37.046875 L 31.421875 -37.046875 Z M 19.625 0 "/></g></g></g><path stroke-linecap="butt" transform="matrix(0.752563, 0, 0, 0.752563, 112.811416, 145.184566)" fill="none" stroke-linejoin="miter" d="M 33.771439 77.997752 L 33.771439 28.780547 L 65.740302 28.780547 L 65.740302 37.635699 L 43.799665 37.635699 L 43.799665 48.125888 L 62.293748 48.125888 L 62.293748 57.017374 L 43.799665 57.017374 L 43.799665 68.825974 L 65.740302 68.825974 L 65.740302 77.997752 Z M 33.771439 77.997752 " stroke="#ff3131" stroke-width="8.103306" stroke-opacity="1" stroke-miterlimit="4"/><g fill="#ff3131" fill-opacity="1"><g transform="translate(134.212436, 203.884505)"><g><path d="M 4.015625 0 L 4.015625 -37.046875 L 28.078125 -37.046875 L 28.078125 -30.375 L 11.5625 -30.375 L 11.5625 -22.484375 L 25.484375 -22.484375 L 25.484375 -15.796875 L 11.5625 -15.796875 L 11.5625 -6.90625 L 28.078125 -6.90625 L 28.078125 0 Z M 4.015625 0 "/></g></g></g><path stroke-linecap="butt" transform="matrix(0.75, 0, 0, 0.75, 167.630662, 285.960156)" fill="none" stroke-linejoin="miter" d="M -0.00234139 1.001042 L 26.492452 1.001042 " stroke="#ffffff" stroke-width="2" stroke-opacity="1" stroke-miterlimit="4"/></svg>