<svg xmlns="http://www.w3.org/2000/svg" xmlns:xlink="http://www.w3.org/1999/xlink" width="500" zoomAndPan="magnify" viewBox="0 0 375 374.999991" height="500" preserveAspectRatio="xMidYMid meet" version="1.0"><defs><g/><clipPath id="911ff701fd"><path d="M 125 142 L 127.292969 142 L 127.292969 260.484375 L 125 260.484375 Z M 125 142 " clip-rule="nonzero"/></clipPath><clipPath id="a306476424"><path d="M 125 121.039062 L 127.292969 121.039062 L 127.292969 159 L 125 159 Z M 125 121.039062 " clip-rule="nonzero"/></clipPath><clipPath id="0869fc705a"><path d="M 64 142 L 127.292969 142 L 127.292969 154 L 64 154 Z M 64 142 " clip-rule="nonzero"/></clipPath><clipPath id="e6744fa01b"><path d="M 78 163 L 127.292969 163 L 127.292969 174 L 78 174 Z M 78 163 " clip-rule="nonzero"/></clipPath><clipPath id="0e84bb3601"><path d="M 72 183 L 127.292969 183 L 127.292969 195 L 72 195 Z M 72 183 " clip-rule="nonzero"/></clipPath><clipPath id="782540310c"><path d="M 100 204 L 127.292969 204 L 127.292969 215 L 100 215 Z M 100 204 " clip-rule="nonzero"/></clipPath><clipPath id="ad9bedb84a"><path d="M 86 224 L 127.292969 224 L 127.292969 236 L 86 236 Z M 86 224 " clip-rule="nonzero"/></clipPath><clipPath id="82fdec0c38"><path d="M 37.5 142 L 58 142 L 58 154 L 37.5 154 Z M 37.5 142 " clip-rule="nonzero"/></clipPath><clipPath id="ffd4cb1ddf"><path d="M 125.976562 90 L 308.324219 90 L 308.324219 284.605469 L 125.976562 284.605469 Z M 125.976562 90 " clip-rule="nonzero"/></clipPath></defs><g clip-path="url(#911ff701fd)"><path fill="#000000" d="M 193.445312 166.507812 L 125.605469 142.96875 L 125.605469 235.0625 L 198.164062 260.238281 Z M 193.445312 166.507812 " fill-opacity="1" fill-rule="evenodd"/></g><g clip-path="url(#a306476424)"><path fill="#000000" d="M 200.03125 120.972656 L 274.457031 139.578125 L 200.03125 158.1875 L 125.605469 139.578125 Z M 200.03125 120.972656 " fill-opacity="1" fill-rule="evenodd"/></g><g clip-path="url(#0869fc705a)"><path fill="#000000" d="M 125.605469 142.96875 L 69.679688 142.96875 C 66.867188 142.96875 64.566406 145.269531 64.566406 148.085938 C 64.566406 150.898438 66.867188 153.203125 69.679688 153.203125 L 125.605469 153.203125 C 128.421875 153.203125 130.722656 150.898438 130.722656 148.085938 Z M 125.605469 142.96875 " fill-opacity="1" fill-rule="evenodd"/></g><g clip-path="url(#e6744fa01b)"><path fill="#000000" d="M 125.605469 163.433594 L 83.496094 163.433594 C 80.683594 163.433594 78.382812 165.738281 78.382812 168.550781 C 78.382812 171.363281 80.683594 173.667969 83.496094 173.667969 L 125.605469 173.667969 C 128.421875 173.667969 130.722656 171.367188 130.722656 168.550781 C 130.722656 165.738281 128.421875 163.433594 125.605469 163.433594 " fill-opacity="1" fill-rule="evenodd"/></g><g clip-path="url(#0e84bb3601)"><path fill="#000000" d="M 125.605469 183.898438 L 77.859375 183.898438 C 75.046875 183.898438 72.742188 186.199219 72.742188 189.015625 C 72.742188 191.828125 75.046875 194.132812 77.859375 194.132812 L 125.605469 194.132812 C 128.421875 194.132812 130.722656 191.828125 130.722656 189.015625 C 130.722656 186.203125 128.421875 183.898438 125.605469 183.898438 " fill-opacity="1" fill-rule="evenodd"/></g><g clip-path="url(#782540310c)"><path fill="#000000" d="M 125.605469 204.363281 L 106.050781 204.363281 C 103.238281 204.363281 100.933594 206.664062 100.933594 209.480469 C 100.933594 212.296875 103.234375 214.597656 106.050781 214.597656 L 125.605469 214.597656 C 128.421875 214.597656 130.722656 212.296875 130.722656 209.480469 C 130.722656 206.664062 128.421875 204.363281 125.605469 204.363281 " fill-opacity="1" fill-rule="evenodd"/></g><g clip-path="url(#ad9bedb84a)"><path fill="#000000" d="M 125.605469 224.828125 L 92.109375 224.828125 C 89.296875 224.828125 86.996094 227.128906 86.996094 229.945312 C 86.996094 232.761719 89.296875 235.0625 92.109375 235.0625 L 125.605469 235.0625 C 128.421875 235.0625 130.722656 232.761719 130.722656 229.945312 C 130.722656 227.128906 128.421875 224.828125 125.605469 224.828125 " fill-opacity="1" fill-rule="evenodd"/></g><path fill="#000000" d="M 89.898438 204.363281 L 79.363281 204.363281 C 76.550781 204.363281 74.246094 206.664062 74.246094 209.480469 C 74.246094 212.296875 76.550781 214.597656 79.363281 214.597656 L 89.898438 214.597656 C 92.710938 214.597656 95.015625 212.296875 95.015625 209.480469 C 95.011719 206.664062 92.710938 204.363281 89.898438 204.363281 " fill-opacity="1" fill-rule="evenodd"/><path fill="#000000" d="M 67.71875 163.433594 L 50.042969 163.433594 C 47.230469 163.433594 44.925781 165.738281 44.925781 168.550781 C 44.925781 171.363281 47.230469 173.667969 50.042969 173.667969 L 67.71875 173.667969 C 70.535156 173.667969 72.835938 171.367188 72.835938 168.550781 C 72.835938 165.738281 70.535156 163.433594 67.71875 163.433594 " fill-opacity="1" fill-rule="evenodd"/><g clip-path="url(#82fdec0c38)"><path fill="#000000" d="M 52.78125 142.96875 L 42.617188 142.96875 C 39.800781 142.96875 37.5 145.269531 37.5 148.085938 C 37.5 150.898438 39.800781 153.203125 42.617188 153.203125 L 52.78125 153.203125 C 55.59375 153.203125 57.894531 150.898438 57.894531 148.085938 C 57.894531 145.269531 55.59375 142.96875 52.78125 142.96875 " fill-opacity="1" fill-rule="evenodd"/></g><path fill="#ffffff" d="M 209.945312 94.675781 L 138.023438 128.71875 C 132.183594 131.546875 128.441406 137.480469 128.441406 144.050781 L 128.53125 231.488281 C 128.53125 237.96875 132.273438 243.992188 138.207031 246.730469 L 210.035156 280.867188 C 214.601562 283.058594 219.984375 283.058594 224.550781 280.867188 L 296.46875 246.730469 C 302.402344 243.902344 306.144531 237.96875 306.144531 231.398438 L 306.144531 143.960938 C 306.144531 137.390625 302.402344 131.457031 296.46875 128.71875 L 224.457031 94.675781 C 219.894531 92.484375 214.601562 92.484375 209.945312 94.675781 Z M 209.945312 94.675781 " fill-opacity="1" fill-rule="nonzero"/><g clip-path="url(#ffd4cb1ddf)"><path fill="#000000" d="M 217.246094 284.976562 C 214.417969 284.976562 211.589844 284.335938 208.941406 283.058594 L 137.113281 248.921875 C 130.449219 245.726562 126.066406 238.882812 126.066406 231.488281 L 125.976562 144.050781 C 125.976562 136.566406 130.265625 129.722656 137.019531 126.527344 L 208.941406 92.484375 C 214.234375 90.019531 220.257812 90.019531 225.554688 92.484375 L 297.476562 126.621094 C 304.230469 129.8125 308.519531 136.660156 308.519531 144.050781 L 308.519531 231.488281 C 308.519531 238.882812 304.136719 245.820312 297.476562 249.015625 L 225.554688 283.148438 C 222.90625 284.335938 220.078125 284.976562 217.246094 284.976562 Z M 211.039062 96.863281 L 139.121094 130.910156 C 134.097656 133.28125 130.8125 138.484375 130.8125 144.050781 L 130.90625 231.488281 C 130.90625 237.058594 134.191406 242.167969 139.210938 244.542969 L 211.039062 278.675781 C 214.964844 280.59375 219.527344 280.59375 223.453125 278.675781 L 295.375 244.542969 C 300.394531 242.167969 303.679688 237.058594 303.679688 231.488281 L 303.679688 144.050781 C 303.679688 138.484375 300.394531 133.375 295.375 131 L 223.453125 96.863281 C 219.527344 94.949219 214.964844 94.949219 211.039062 96.863281 Z M 211.039062 96.863281 " fill-opacity="1" fill-rule="nonzero"/></g><path stroke-linecap="butt" transform="matrix(1.386145, 0, 0, 1.386145, 113.877748, 107.972395)" fill="none" stroke-linejoin="miter" d="M 57.221692 77.998655 L 48.403959 77.998655 L 32.969405 28.783928 L 39.834217 28.783928 L 52.991773 71.669276 L 66.183146 28.783928 L 72.904236 28.783928 Z M 57.221692 77.998655 " stroke="#737373" stroke-width="10.379529" stroke-opacity="1" stroke-miterlimit="4"/><g fill="#737373" fill-opacity="1"><g transform="translate(157.06483, 216.091708)"><g><path d="M 36.125 0 L 23.90625 0 L 2.515625 -68.21875 L 12.03125 -68.21875 L 30.265625 -8.78125 L 48.546875 -68.21875 L 57.875 -68.21875 Z M 36.125 0 "/></g></g></g><path stroke-linecap="butt" transform="matrix(1.386145, 0, 0, 1.386145, 176.215949, 109.55929)" fill="none" stroke-linejoin="miter" d="M 33.770921 78.000783 L 33.770921 28.783237 L 65.741895 28.783237 L 65.741895 37.637605 L 43.800423 37.637605 L 43.800423 48.129269 L 62.29258 48.129269 L 62.29258 57.017454 L 43.800423 57.017454 L 43.800423 68.825156 L 65.741895 68.825156 L 65.741895 78.000783 Z M 33.770921 78.000783 " stroke="#ff3131" stroke-width="8.103306" stroke-opacity="1" stroke-miterlimit="4"/><g fill="#ff3131" fill-opacity="1"><g transform="translate(215.634448, 217.678602)"><g><path d="M 7.390625 0 L 7.390625 -68.21875 L 51.703125 -68.21875 L 51.703125 -55.953125 L 21.296875 -55.953125 L 21.296875 -41.40625 L 46.921875 -41.40625 L 46.921875 -29.078125 L 21.296875 -29.078125 L 21.296875 -12.71875 L 51.703125 -12.71875 L 51.703125 0 Z M 7.390625 0 "/></g></g></g></svg>